<?xml version="1.0" encoding="UTF-8" standalone="no"?>
<svg
   xmlns:dc="http://purl.org/dc/elements/1.1/"
   xmlns:cc="http://creativecommons.org/ns#"
   xmlns:rdf="http://www.w3.org/1999/02/22-rdf-syntax-ns#"
   xmlns:svg="http://www.w3.org/2000/svg"
   xmlns="http://www.w3.org/2000/svg"
   xmlns:sodipodi="http://sodipodi.sourceforge.net/DTD/sodipodi-0.dtd"
   xmlns:inkscape="http://www.inkscape.org/namespaces/inkscape"
   enable-background="new 0 0 64 64"
   height="64px"
   id="Layer_1"
   version="1.1"
   viewBox="0 0 64 64"
   width="64px"
   xml:space="preserve"
   sodipodi:docname="favicon.svg"
   inkscape:export-filename="C:\Users\Thiag\Downloads\favicon.png"
   inkscape:export-xdpi="768"
   inkscape:export-ydpi="768"
   inkscape:version="0.92.5 (2060ec1f9f, 2020-04-08)"><metadata
     id="metadata13"><rdf:RDF><cc:Work
         rdf:about=""><dc:format>image/svg+xml</dc:format><dc:type
           rdf:resource="http://purl.org/dc/dcmitype/StillImage" /></cc:Work></rdf:RDF></metadata><defs
     id="defs11" /><sodipodi:namedview
     pagecolor="#ffffff"
     bordercolor="#666666"
     borderopacity="1"
     objecttolerance="10"
     gridtolerance="10"
     guidetolerance="10"
     inkscape:pageopacity="0"
     inkscape:pageshadow="2"
     inkscape:window-width="1920"
     inkscape:window-height="1017"
     id="namedview9"
     showgrid="false"
     inkscape:zoom="3.6875"
     inkscape:cx="32"
     inkscape:cy="32"
     inkscape:window-x="2552"
     inkscape:window-y="-8"
     inkscape:window-maximized="1"
     inkscape:current-layer="Layer_1" /><circle
     cx="32"
     cy="32"
     fill="#4F5D73"
     r="32"
     id="circle2" /><path
     d="M46.885,17.535C46.712,17.206,46.371,17,46,17H29c-0.379,0-0.725,0.214-0.895,0.553l-8,16  c-0.155,0.31-0.139,0.678,0.044,0.973C20.332,34.82,20.653,35,21,35h5.453l-8.365,18.59c-0.191,0.424-0.063,0.925,0.308,1.207  C18.574,54.933,18.787,55,19,55c0.227,0,0.455-0.078,0.641-0.232l24-20c0.323-0.27,0.443-0.712,0.3-1.108  C43.797,33.264,43.421,33,43,33h-6.099l9.923-14.434C47.034,18.261,47.058,17.863,46.885,17.535z"
     fill="#231F20"
     opacity="0.2"
     id="path4" /><path
     d="M46.885,15.535C46.712,15.206,46.371,15,46,15H29c-0.379,0-0.725,0.214-0.895,0.553l-8,16  c-0.155,0.31-0.139,0.678,0.044,0.973C20.332,32.82,20.653,33,21,33h5.453l-8.365,18.59c-0.191,0.424-0.063,0.925,0.308,1.207  C18.574,52.933,18.787,53,19,53c0.227,0,0.455-0.078,0.641-0.232l24-20c0.323-0.27,0.443-0.712,0.3-1.108  C43.797,31.264,43.421,31,43,31h-6.099l9.923-14.434C47.034,16.261,47.058,15.863,46.885,15.535z"
     fill="#F5CF87"
     id="path6" /></svg>